<?xml version="1.0" encoding="utf-8"?>
<!-- Generator: Adobe Illustrator 22.0.0, SVG Export Plug-In . SVG Version: 6.00 Build 0)  -->
<svg version="1.1" id="图层_1" xmlns="http://www.w3.org/2000/svg" xmlns:xlink="http://www.w3.org/1999/xlink" x="0px" y="0px"
	 viewBox="0 0 324 310.6" style="enable-background:new 0 0 324 310.6;" xml:space="preserve">
<path style="fill:#F49D2A;" d="M171.4,297.3c-0.6,0.1-1.1,0.1-1.7,0.1C170.3,297.4,170.9,297.3,171.4,297.3z"/>
<path style="fill:#ED900A;stroke:#ED900A;stroke-width:10;stroke-miterlimit:10;" d="M153.8,183.3l36.1-36.1c5.5-5.5,5.5-14.5,0-20
	c-5.5-5.5-14.5-5.5-20,0l-36.1,36.1c-5.5,5.5-5.5,14.5,0,20C139.2,188.8,148.2,188.8,153.8,183.3z"/>
<path style="fill:#ED900A;stroke:#ED900A;stroke-width:10;stroke-miterlimit:10;" d="M239.2,37.2c-4.2-2.8-11-6.2-16.7-9
	c-2-1.1-4.4-1.8-6.9-1.8c-4.5,0-8.5,2.1-11,5.3l-14.4,14.4l0,0l-85,85c-2.7,2.7-4.1,6.3-4.1,9.8c0,3.6,1.4,7.3,4.2,10.1
	c5.5,5.5,14.5,5.6,19.9,0.1l91.8-91.8l0,0c0.5-0.6,1.3-1,2.1-1c0.4,0,0.8,0.1,1.2,0.3c0.2,0.1,0.4,0.3,0.6,0.4c0,0,0,0,0.1,0.1l0,0
	c32.5,19.9,54.2,55.8,54.2,96.8c0,60-46.5,109.2-105.6,113.2l0,0c-7.8,0-14.2,6.4-14.2,14.2c0,7.8,6.3,14.2,14.2,14.2l0,0
	c0.6,0,1.2-0.1,1.7-0.1h0.1c73.7-5,132.1-66.4,132.1-141.5C303.5,106.2,277.9,62.5,239.2,37.2z"/>
<path style="fill:#ED900A;stroke:#ED900A;stroke-width:10;stroke-miterlimit:10;" d="M217.9,160.1c-5.5-5.5-14.5-5.6-19.9-0.1
	l-92.2,92.2l0,0c-0.5,0.5-1.1,0.8-1.9,0.8c-0.7,0-1.3-0.2-1.8-0.5l0,0c-32.3-20-53.8-55.7-53.8-96.6c0-59.8,46.3-108.9,105.1-113.2
	l0,0c7.8,0,14.2-6.4,14.2-14.2s-6.3-14.2-14.2-14.2l0,0c-0.6,0-1.3,0-1.9,0.1C77.9,19.8,20,81.1,20,155.9c0,49.4,25.3,93,63.6,118.4
	c4.2,2.8,10.9,6.3,16.5,9l0,0c2,1.1,4.4,1.8,6.8,1.8c3.8,0,7.3-1.5,9.9-4l0.4-0.4l0.2-0.2l14.9-14.9c0,0,0,0,0.1,0L218,180
	C223.5,174.6,223.4,165.7,217.9,160.1z"/>
</svg>
