<?xml version="1.0" encoding="utf-8"?>
<!-- Generator: Adobe Illustrator 22.0.0, SVG Export Plug-In . SVG Version: 6.00 Build 0)  -->
<svg version="1.1" id="图层_1" xmlns="http://www.w3.org/2000/svg" xmlns:xlink="http://www.w3.org/1999/xlink" x="0px" y="0px"
	 viewBox="0 0 1163.8 340.6" style="enable-background:new 0 0 1163.8 340.6;" xml:space="preserve">
<path style="fill:#F49D2A;" d="M182,310.3c-0.6,0.1-1.1,0.1-1.7,0.1C180.9,310.4,181.5,310.3,182,310.3z"/>
<path style="fill:#ED900A;stroke:#ED900A;stroke-width:10;stroke-miterlimit:10;" d="M163.5,199.5l40.3-40.3
	c6.1-6.1,6.1-16.2,0-22.3c-6.1-6.1-16.2-6.1-22.3,0l-40.3,40.3c-6.1,6.1-6.1,16.2,0,22.3C147.3,205.6,157.3,205.6,163.5,199.5z"/>
<path style="fill:#ED900A;stroke:#ED900A;stroke-width:10;stroke-miterlimit:10;" d="M258.8,36.5c-4.7-3.1-12.3-6.9-18.6-10
	c-2.2-1.2-4.9-2-7.7-2c-5,0-9.5,2.3-12.3,5.9l-16.1,16.1l0,0l-94.8,94.8c-3,3-4.6,7-4.6,10.9c0,4,1.6,8.1,4.7,11.3
	c6.1,6.1,16.2,6.2,22.2,0.1L233.9,61.3l0,0c0.6-0.7,1.5-1.1,2.3-1.1c0.4,0,0.9,0.1,1.3,0.3c0.2,0.1,0.4,0.3,0.7,0.4c0,0,0,0,0.1,0.1
	l0,0c36.3,22.2,60.5,62.2,60.5,107.9c0,66.9-51.9,121.7-117.7,126.2l0,0c-8.7,0-15.8,7.1-15.8,15.8s7,15.8,15.8,15.8l0,0
	c0.7,0,1.3-0.1,1.9-0.1h0.1c82.2-5.6,147.2-74.1,147.2-157.7C330.5,113.5,301.9,64.7,258.8,36.5z"/>
<path style="fill:#ED900A;stroke:#ED900A;stroke-width:10;stroke-miterlimit:10;" d="M235,173.6c-6.1-6.1-16.2-6.2-22.2-0.1
	L110.1,276.2l0,0c-0.6,0.6-1.2,0.9-2.1,0.9c-0.8,0-1.5-0.2-2-0.6l0,0c-36-22.3-60-62.1-60-107.6c0-66.7,51.6-121.4,117.1-126.2l0,0
	c8.7,0,15.8-7.1,15.8-15.8s-7-15.8-15.8-15.8l0,0c-0.7,0-1.5,0-2.1,0.1c-82,6-146.6,74.3-146.6,157.7c0,55.1,28.2,103.6,70.9,132
	c4.7,3.1,12.2,7,18.4,10l0,0c2.2,1.2,4.9,2,7.6,2c4.2,0,8.1-1.7,11-4.5l0.4-0.4l0.2-0.2l16.6-16.6c0,0,0,0,0.1,0l95.4-95.4
	C241.3,189.8,241.1,179.9,235,173.6z"/>
<path style="fill:#808080;" d="M564.8,112.6c0,0-0.3,3.7-0.6,5.6c-3,32.6-6.1,45.6-10.7,50.3c-3.1,3.1-6.4,4.3-10.8,4.6
	c-4,0.4-11,0.4-18.2,0c-0.3-3.4-1.6-8.4-3.7-11.7c6.8,0.7,13.2,0.7,15.8,0.7c2.5,0,3.8-0.3,5.3-1.8c3-2.7,5.6-12.7,7.8-35.8h-15.5
	c-7.8,20.4-20.4,38-34.2,49.6c-2.2-2.4-7.8-6.7-10.8-8.6c13-9.5,23.8-24.1,30.8-41h-16.7c-11,18.8-27.5,34.9-44.3,45.6
	c-2.2-2.7-7.3-7.5-10.4-9.9c15.2-8.3,29.5-20.9,39.1-35.7h-17.2c-7.5,7.4-15.7,13.8-23.4,18.8c-2.2-2.7-7.4-7.5-10.5-9.8
	c13.9-7.7,27.5-19.1,36.7-32.1h-14.8V44.1H554v57.4h-64.4c-2.5,3.8-5.2,7.4-8,11.1H564.8z M472.2,67.3H540v-12h-67.8V67.3z
	 M472.2,90.4H540V78h-67.8V90.4z"/>
<path style="fill:#808080;" d="M640,109.1c-0.4,2.8-0.7,5.6-1.3,8.4c7.4,7.3,24.4,26.5,28.7,31.4l-9.5,11.8
	c-4.9-7.4-14.8-20.1-22.6-29.2c-4.9,15.2-13.6,30-29.3,41.4c-1.9-3-7-8.4-9.8-10.5c20.9-14.8,27.7-34.9,29.9-53.4H598V96h29v-4.4
	V69.6h-9c-3.1,8.1-7,15.5-11,21.5c-2.5-2.4-8-6.1-11.2-8c8.4-10.8,14.2-28.1,17.6-45.4l13.2,2.5c-1.2,5.6-2.5,11.2-4,16.6H663v12.9
	h-22.1v22.2c0,1.3,0,2.8,0,4.3h26.2v13H640z M725.6,50.2v117.2h-13.9v-9.5h-26.9V169h-13.3V50.2H725.6z M711.7,145V63.2h-26.9V145
	H711.7z"/>
<path style="fill:#808080;" d="M821.9,103.6c-9.2,17-20.4,33.3-31.4,46.6l67.3-4.9c-5.5-8.4-11.4-16.7-16.6-24l12.6-6.7
	c12.3,16.4,26.8,37.6,34,51.2l-13.3,8c-2.1-4.4-5.2-9.8-8.7-15.5c-77.7,6.5-87,7-93.8,9.6c-0.9-3.1-3.3-11-5.3-15.4
	c3.7-0.9,7-4.6,11.5-10.4c4.1-4.7,15.4-20.9,24.4-38.6h-43.2V89.5h131.3v14.1H821.9z M875.5,62.5h-99.7V48.4h99.7V62.5z"/>
<path style="fill:#808080;" d="M1007.4,157.5h40.1v10.7h-89.4v5.2h-13.5v-68.2c-6.8,1.9-13.6,3.7-20.3,5.2c-1.6-3.1-5.5-9.2-8-12
	c21.5-3.8,43.1-9.8,61.4-18.1V38.5h13.2v34.9c8-4.6,14.9-9.6,20.4-15.2l12,6.5C1009.1,79,988.4,90,965.8,98.3h29.6
	c-2.1-3.3-4.4-6.5-6.7-9.3l11.7-3.4c3.4,3.6,7.1,8.7,9.5,12.7h36.3v10.7h-38.8V119h32.3v9.2h-32.3v9.6h32.3v9.3h-32.3V157.5z
	 M965.3,48.4c-7,13.2-18.2,26.6-28.4,35.1c-2.7-2.5-8.1-6.7-11.2-8.7c10.4-7.4,20.6-18.8,26.3-30.3L965.3,48.4z M994,108.9h-36V119
	h36V108.9z M994,128.2h-36v9.6h36V128.2z M958.1,157.5h36v-10.4h-36V157.5z M1038.1,79.6c-5.9-8.4-18.8-21.2-29.5-30.2l11.1-6.4
	c10.7,8.3,24,20.7,30.5,29.2L1038.1,79.6z"/>
<path style="fill:#808080;" d="M422,289.5l6.8-8c5.3,5.3,12.5,8.7,19.6,8.7c8.9,0,13.9-4.2,13.9-10.4c0-6.7-5-8.8-11.8-11.8
	l-10.2-4.4c-7.1-3-15-8.6-15-19.3c0-11.6,10.2-20.3,24.2-20.3c8.6,0,16.7,3.6,22.3,9.3l-6.1,7.4c-4.6-4.1-9.7-6.6-16.2-6.6
	c-7.5,0-12.4,3.6-12.4,9.5c0,6.3,5.9,8.7,11.9,11.1l10.1,4.3c8.7,3.7,15,9.1,15,19.9c0,11.8-9.8,21.4-25.9,21.4
	C438.1,300.3,428.7,296.3,422,289.5z"/>
<path style="fill:#808080;" d="M501,244h9.4l0.9,7.7h0.3c4.7-5,10.2-9.1,17-9.1c8.2,0,12.8,3.8,15.2,10.1c5.4-5.8,11-10.1,17.9-10.1
	c11.5,0,16.9,7.8,16.9,21.8V299h-11.5v-33.2c0-9.5-3-13.3-9.2-13.3c-3.8,0-7.8,2.5-12.4,7.5v39H534v-33.2c0-9.5-2.9-13.3-9.2-13.3
	c-3.7,0-7.8,2.5-12.4,7.5v39H501V244z"/>
<path style="fill:#808080;" d="M606,284.4c0-11.8,10-17.9,32.9-20.4c-0.1-6.4-2.4-12-10.5-12c-5.8,0-11.2,2.6-15.9,5.6l-4.3-7.8
	c5.7-3.6,13.4-7.2,22.2-7.2c13.7,0,20,8.7,20,23.3V299H641l-1-6.3h-0.3c-5,4.3-10.9,7.6-17.5,7.6C612.7,300.3,606,294.1,606,284.4z
	 M638.9,284.8v-13.5c-16.3,2-21.8,6.1-21.8,12.3c0,5.4,3.7,7.6,8.6,7.6C630.5,291.2,634.4,288.9,638.9,284.8z"/>
<path style="fill:#808080;" d="M680.7,244h9.4l0.9,9.9h0.3c3.9-7.1,9.7-11.3,15.6-11.3c2.7,0,4.5,0.4,6.2,1.2l-2.1,10
	c-1.9-0.6-3.3-0.9-5.5-0.9c-4.5,0-9.9,3.1-13.4,11.8V299h-11.4V244z"/>
<path style="fill:#808080;" d="M737.4,281v-27.8h-8v-8.6l8.5-0.6l1.3-15.2h9.7V244h14.3v9.2h-14.3v27.9c0,6.6,2.3,10,8,10
	c1.9,0,4.3-0.6,5.9-1.3l2.1,8.5c-3.1,1-6.8,2-10.8,2C741.7,300.3,737.4,292.6,737.4,281z"/>
<path style="fill:#808080;" d="M826.7,225.4h11.6v63.8h31.1v9.8h-42.7V225.4z"/>
<path style="fill:#808080;" d="M892.2,284.4c0-11.8,10-17.9,32.9-20.4c-0.1-6.4-2.4-12-10.5-12c-5.8,0-11.2,2.6-15.9,5.6l-4.3-7.8
	c5.7-3.6,13.4-7.2,22.2-7.2c13.7,0,20,8.7,20,23.3V299h-9.4l-1-6.3h-0.3c-5,4.3-10.9,7.6-17.5,7.6
	C898.9,300.3,892.2,294.1,892.2,284.4z M925.1,284.8v-13.5c-16.3,2-21.8,6.1-21.8,12.3c0,5.4,3.7,7.6,8.6,7.6
	C916.7,291.2,920.6,288.9,925.1,284.8z"/>
<path style="fill:#808080;" d="M966.9,244h9.4l0.9,9.9h0.3c3.9-7.1,9.7-11.3,15.6-11.3c2.7,0,4.5,0.4,6.2,1.2l-2.1,10
	c-1.9-0.6-3.3-0.9-5.5-0.9c-4.5,0-9.9,3.1-13.4,11.8V299h-11.4V244z"/>
<path style="fill:#808080;" d="M1021.8,219.3h11.2v51.4h0.3l21.6-26.7h12.7l-18.7,22.3l20.8,32.7h-12.5l-14.9-24.9l-9.3,10.7V299
	h-11.2V219.3z"/>
</svg>
